<svg xmlns="http://www.w3.org/2000/svg" viewBox="0 0 1600 900">
  <defs>
    <linearGradient id="waterGradient" x1="0%" y1="0%" x2="100%" y2="100%">
      <stop offset="0%" style="stop-color:#e0f7fa;stop-opacity:1" />
      <stop offset="100%" style="stop-color:#b2ebf2;stop-opacity:1" />
    </linearGradient>
  </defs>
  
  <rect width="1600" height="900" fill="url(#waterGradient)"/>
  
  <g transform="translate(800, 320)">
    <ellipse cx="0" cy="120" rx="140" ry="25" fill="#90a4ae" opacity="0.3"/>
    <rect x="-90" y="30" width="180" height="140" rx="18" fill="#455a64" stroke="#607d8b" stroke-width="4"/>
    <rect x="-80" y="40" width="160" height="120" rx="12" fill="#546e7a"/>
    <rect x="-85" y="-25" width="170" height="60" rx="10" fill="#607d8b"/>
    <path d="M 100 80 L 160 80 Q 180 80 180 100 Q 180 120 160 120 L 100 120" fill="none" stroke="#607d8b" stroke-width="10" stroke-linecap="round"/>
    <circle cx="0" cy="100" r="30" fill="#81c784" opacity="0.7"/>
    <path d="M -10 95 L -5 105 L 10 85" stroke="white" stroke-width="4" fill="none" stroke-linecap="round" stroke-linejoin="round"/>
  </g>
  
  <g transform="translate(350, 350)">
    <circle cx="0" cy="0" r="8" fill="#ef5350"/>
    <path d="M -6 -2 L 6 -2 L 0 4 Z" fill="#ef5350"/>
  </g>
  
  <g transform="translate(1250, 350)">
    <circle cx="0" cy="0" r="8" fill="#26c6da"/>
    <path d="M -4 -4 L 4 -4 L 4 4 L -4 4 Z" fill="#26c6da"/>
  </g>
  
  <text x="800" y="620" font-family="Arial, sans-serif" font-size="88" font-weight="bold" fill="#00796b" text-anchor="middle">Hard Water Kettles</text>
  
  <text x="800" y="720" font-family="Arial, sans-serif" font-size="46" fill="#455a64" text-anchor="middle">No Limescale Build-Up</text>
</svg>
