<svg xmlns="http://www.w3.org/2000/svg" viewBox="0 0 1600 900">
  <defs>
    <linearGradient id="bgGradient" x1="0%" y1="0%" x2="100%" y2="100%">
      <stop offset="0%" style="stop-color:#e3f2fd;stop-opacity:1" />
      <stop offset="100%" style="stop-color:#bbdefb;stop-opacity:1" />
    </linearGradient>
  </defs>
  
  <rect width="1600" height="900" fill="url(#bgGradient)"/>
  
  <g transform="translate(800, 350)">
    <ellipse cx="0" cy="80" rx="120" ry="20" fill="#90a4ae" opacity="0.3"/>
    <rect x="-80" y="20" width="160" height="120" rx="15" fill="#263238" stroke="#455a64" stroke-width="3"/>
    <rect x="-70" y="30" width="140" height="100" rx="10" fill="#37474f"/>
    <rect x="-75" y="-20" width="150" height="45" rx="8" fill="#546e7a"/>
    <circle cx="-40" cy="5" r="3" fill="#4caf50"/>
    <circle cx="40" cy="5" r="3" fill="#f44336"/>
    <rect x="-30" y="-5" width="60" height="20" rx="3" fill="#90a4ae"/>
    <path d="M 90 60 L 140 60 Q 160 60 160 80 Q 160 100 140 100 L 90 100" fill="none" stroke="#455a64" stroke-width="8" stroke-linecap="round"/>
    <path d="M 80 130 L 160 200" stroke="#ff5722" stroke-width="6" stroke-linecap="round"/>
    <circle cx="165" cy="205" r="8" fill="#ff5722"/>
    <circle cx="165" cy="205" r="12" fill="none" stroke="#ff5722" stroke-width="2"/>
  </g>
  
  <text x="800" y="620" font-family="Arial, sans-serif" font-size="90" font-weight="bold" fill="#1565c0" text-anchor="middle">Car Kettles 2025</text>
  
  <text x="800" y="720" font-family="Arial, sans-serif" font-size="48" fill="#37474f" text-anchor="middle">Hot Drinks On The Go</text>
</svg>
