<svg xmlns="http://www.w3.org/2000/svg" viewBox="0 0 1600 900">
  <defs>
    <linearGradient id="bg" x1="0%" y1="0%" x2="100%" y2="100%">
      <stop offset="0%" style="stop-color:#E8F4F8;stop-opacity:1" />
      <stop offset="100%" style="stop-color:#B8E6F0;stop-opacity:1" />
    </linearGradient>
  </defs>
  
  <rect width="1600" height="900" fill="url(#bg)"/>
  
  <g transform="translate(400, 200)">
    <ellipse cx="400" cy="450" rx="280" ry="40" fill="#2C5F7D" opacity="0.15"/>
    
    <path d="M 300 300 Q 280 250 300 200 L 500 200 Q 520 250 500 300 L 480 380 Q 470 420 400 420 Q 330 420 320 380 Z" 
          fill="#2C5F7D" stroke="#1A3A4D" stroke-width="3"/>
    
    <path d="M 500 250 Q 650 240 720 280 Q 740 295 730 310 Q 720 325 680 330 Q 620 330 500 300" 
          fill="none" stroke="#2C5F7D" stroke-width="12" stroke-linecap="round"/>
    
    <circle cx="360" cy="250" r="8" fill="#5A9BB8" opacity="0.6"/>
    <circle cx="440" cy="250" r="8" fill="#5A9BB8" opacity="0.6"/>
    
    <path d="M 380 265 Q 400 275 420 265" fill="none" stroke="#5A9BB8" stroke-width="3" opacity="0.5"/>
    
    <rect x="150" y="280" width="20" height="100" rx="10" fill="#2C5F7D"/>
    <path d="M 170 280 Q 210 250 250 280" fill="none" stroke="#2C5F7D" stroke-width="18" stroke-linecap="round"/>
    
    <ellipse cx="400" cy="425" rx="120" ry="15" fill="#1A3A4D" opacity="0.3"/>
  </g>
  
  <text x="800" y="580" font-family="Arial, sans-serif" font-size="120" font-weight="bold" fill="#1A3A4D" text-anchor="middle">
    Best Gooseneck
  </text>
  <text x="800" y="700" font-family="Arial, sans-serif" font-size="100" font-weight="bold" fill="#2C5F7D" text-anchor="middle">
    Kettles 2024
  </text>
</svg>
