<svg xmlns="http://www.w3.org/2000/svg" viewBox="0 0 1600 900">
  <defs>
    <linearGradient id="bg9" x1="0%" y1="0%" x2="100%" y2="100%">
      <stop offset="0%" style="stop-color:#E0F2F1;stop-opacity:1" />
      <stop offset="100%" style="stop-color:#B2DFDB;stop-opacity:1" />
    </linearGradient>
  </defs>
  
  <!-- Background -->
  <rect width="1600" height="900" fill="url(#bg9)"/>
  
  <!-- Suitcase -->
  <rect x="350" y="550" width="200" height="140" fill="#795548" rx="10"/>
  <rect x="355" y="555" width="190" height="130" fill="#8D6E63" rx="8"/>
  <line x1="370" y1="570" x2="530" y2="570" stroke="#6D4C41" stroke-width="3"/>
  <line x1="370" y1="670" x2="530" y2="670" stroke="#6D4C41" stroke-width="3"/>
  <rect x="430" y="520" width="40" height="35" fill="#A1887F" rx="5"/>
  <circle cx="450" cy="537" r="5" fill="#6D4C41"/>
  
  <!-- Travel smoothie bottle -->
  <rect x="900" y="480" width="140" height="250" fill="#66BB6A" opacity="0.3" rx="8"/>
  <rect x="905" y="485" width="130" height="240" fill="#81C784" opacity="0.6" rx="5"/>
  
  <!-- Smoothie liquid -->
  <rect x="915" y="550" width="110" height="165" fill="#4CAF50" opacity="0.8"/>
  
  <!-- Lid -->
  <rect x="900" y="465" width="140" height="25" fill="#424242" rx="5"/>
  <circle cx="970" cy="477" r="8" fill="#757575"/>
  
  <!-- Leafy greens beside bottle -->
  <ellipse cx="820" cy="620" rx="45" ry="55" fill="#2E7D32" transform="rotate(-25 820 620)" opacity="0.8"/>
  <ellipse cx="850" cy="640" rx="40" ry="50" fill="#388E3C" transform="rotate(10 850 640)" opacity="0.8"/>
  
  <!-- Airplane icon -->
  <path d="M 1200 400 L 1150 450 L 1100 450 L 1120 500 L 1080 500 L 1050 550 L 1000 550 L 1050 450 L 980 450 L 960 480 L 920 480 L 940 400 L 920 320 L 960 320 L 980 350 L 1050 350 L 1000 250 L 1050 250 L 1080 300 L 1120 300 L 1100 350 L 1150 350 L 1200 400 Z" fill="#0288D1" opacity="0.6"/>
  
  <!-- Travel path line -->
  <path d="M 580 600 Q 750 550 920 600" stroke="#00ACC1" stroke-width="4" stroke-dasharray="10,10" fill="none"/>
  <circle cx="580" cy="600" r="12" fill="#00BCD4"/>
  <circle cx="920" cy="600" r="12" fill="#00BCD4"/>
  
  <!-- Main Text -->
  <text x="800" y="220" font-family="Arial, sans-serif" font-size="72" font-weight="bold" text-anchor="middle" fill="#00695C">
    Travel Smoothies
  </text>
  <text x="800" y="310" font-family="Arial, sans-serif" font-size="54" text-anchor="middle" fill="#00897B">
    Green On The Go
  </text>
</svg>
