<svg xmlns="http://www.w3.org/2000/svg" viewBox="0 0 1600 900">
  <defs>
    <linearGradient id="officeBg2" x1="0%" y1="0%" x2="100%" y2="100%">
      <stop offset="0%" style="stop-color:#E3F2FD;stop-opacity:1" />
      <stop offset="100%" style="stop-color:#BBDEFB;stop-opacity:1" />
    </linearGradient>
  </defs>
  
  <!-- Background -->
  <rect width="1600" height="900" fill="url(#officeBg2)"/>
  
  <!-- Kettle Illustration -->
  <g transform="translate(1050, 400)">
    <ellipse cx="0" cy="120" rx="120" ry="30" fill="#1976D2" opacity="0.2"/>
    <path d="M -100 30 Q -120 110 -100 140 L 100 140 Q 120 110 100 30 Z" fill="#1976D2"/>
    <path d="M -100 30 Q -120 15 -90 0 L 90 0 Q 120 15 100 30 Z" fill="#2196F3"/>
    
    <!-- Handle -->
    <path d="M 100 50 Q 150 50 150 95 Q 150 140 100 140" 
          fill="none" stroke="#0D47A1" stroke-width="14" stroke-linecap="round"/>
    
    <!-- Steam -->
    <g opacity="0.5">
      <path d="M -25 -8 Q -30 -35 -25 -60" fill="none" stroke="#64B5F6" stroke-width="7" stroke-linecap="round"/>
      <path d="M 0 -10 Q -5 -40 0 -70" fill="none" stroke="#64B5F6" stroke-width="7" stroke-linecap="round"/>
      <path d="M 25 -8 Q 30 -35 25 -60" fill="none" stroke="#64B5F6" stroke-width="7" stroke-linecap="round"/>
    </g>
  </g>
  
  <!-- Main Text -->
  <text x="200" y="380" font-family="Arial, sans-serif" font-size="130" font-weight="bold" fill="#0D47A1">
    Office Kettles
  </text>
  <text x="200" y="530" font-family="Arial, sans-serif" font-size="100" font-weight="normal" fill="#1976D2">
    2025
  </text>
  
  <!-- Office Building Icon -->
  <g transform="translate(250, 650)">
    <rect x="0" y="0" width="120" height="150" fill="#1976D2" rx="4"/>
    <rect x="15" y="15" width="25" height="22" fill="#64B5F6" rx="2"/>
    <rect x="50" y="15" width="25" height="22" fill="#64B5F6" rx="2"/>
    <rect x="85" y="15" width="20" height="22" fill="#64B5F6" rx="2"/>
    <rect x="15" y="45" width="25" height="22" fill="#64B5F6" rx="2"/>
    <rect x="50" y="45" width="25" height="22" fill="#64B5F6" rx="2"/>
    <rect x="85" y="45" width="20" height="22" fill="#64B5F6" rx="2"/>
    <rect x="15" y="75" width="25" height="22" fill="#64B5F6" rx="2"/>
    <rect x="50" y="75" width="25" height="22" fill="#64B5F6" rx="2"/>
    <rect x="85" y="75" width="20" height="22" fill="#64B5F6" rx="2"/>
    <rect x="35" y="110" width="50" height="40" fill="#0D47A1" rx="2"/>
  </g>
  
  <!-- Coffee Cup Icon -->
  <g transform="translate(950, 650)">
    <rect x="0" y="10" width="70" height="80" rx="8" fill="#2196F3"/>
    <ellipse cx="35" cy="10" rx="35" ry="12" fill="#1976D2"/>
    <path d="M 70 35 Q 100 35 100 55 Q 100 75 70 75" fill="none" stroke="#1976D2" stroke-width="10" stroke-linecap="round"/>
    <path d="M 15 0 Q 20 -12 25 0" fill="none" stroke="#90CAF9" stroke-width="5" stroke-linecap="round"/>
    <path d="M 40 -2 Q 45 -14 50 -2" fill="none" stroke="#90CAF9" stroke-width="5" stroke-linecap="round"/>
  </g>
  
  <!-- Decorative Elements -->
  <circle cx="200" cy="180" r="70" fill="#64B5F6" opacity="0.15"/>
  <circle cx="1400" cy="200" r="90" fill="#90CAF9" opacity="0.2"/>
  <circle cx="1350" cy="750" r="80" fill="#BBDEFB" opacity="0.25"/>
  
  <!-- Star Badge -->
  <g transform="translate(1300, 650)">
    <circle cx="0" cy="0" r="50" fill="#1976D2" opacity="0.9"/>
    <text x="0" y="20" text-anchor="middle" fill="white" font-family="Arial, sans-serif" font-size="60" font-weight="bold">★</text>
  </g>
</svg>
