<svg xmlns="http://www.w3.org/2000/svg" viewBox="0 0 1600 900">
  <defs>
    <linearGradient id="bg11" x1="0%" y1="0%" x2="100%" y2="100%">
      <stop offset="0%" style="stop-color:#E8F5E9;stop-opacity:1" />
      <stop offset="100%" style="stop-color:#C8E6C9;stop-opacity:1" />
    </linearGradient>
  </defs>
  <rect width="1600" height="900" fill="url(#bg11)"/>
  
  <!-- Blender -->
  <rect x="650" y="650" width="180" height="80" fill="#424242" rx="10"/>
  <path d="M 700 450 L 670 650 L 830 650 L 800 450 Z" fill="#81C784" opacity="0.7"/>
  <ellipse cx="750" cy="450" rx="50" ry="15" fill="#66BB6A"/>
  <circle cx="750" cy="550" r="40" fill="#FFF" opacity="0.3"/>
  
  <!-- Heart icon for health -->
  <path d="M 1100 400 Q 1100 350 1140 350 Q 1180 350 1180 400 Q 1180 450 1140 490 Q 1100 450 1100 400 Z M 1140 490 Q 1100 450 1060 400 Q 1060 350 1100 350 Q 1140 350 1140 400 Z" fill="#E53935"/>
  
  <!-- Plus sign for health -->
  <rect x="480" y="530" width="60" height="15" fill="#4CAF50" rx="5"/>
  <rect x="502" y="508" width="15" height="60" fill="#4CAF50" rx="5"/>
  
  <!-- Vegetables -->
  <ellipse cx="950" cy="620" rx="35" ry="45" fill="#66BB6A" transform="rotate(-20 950 620)"/>
  <circle cx="1050" cy="630" r="30" fill="#FF5252"/>
  
  <text x="800" y="260" font-family="Arial, sans-serif" font-size="78" font-weight="bold" text-anchor="middle" fill="#2E7D32">Using Blenders</text>
  <text x="800" y="350" font-family="Arial, sans-serif" font-size="54" text-anchor="middle" fill="#388E3C">In Your Diet</text>
</svg>
