<svg viewBox="0 0 200 30" xmlns="http://www.w3.org/2000/svg">
  <defs>
    <!-- Gradient for the blender -->
    <linearGradient id="blenderGradient" x1="0%" y1="0%" x2="100%" y2="100%">
      <stop offset="0%" style="stop-color:#3B82F6;stop-opacity:1" />
      <stop offset="50%" style="stop-color:#1D4ED8;stop-opacity:1" />
      <stop offset="100%" style="stop-color:#1E40AF;stop-opacity:1" />
    </linearGradient>
    
    <!-- Gradient for smoothie -->
    <linearGradient id="smoothieGradient" x1="0%" y1="0%" x2="100%" y2="100%">
      <stop offset="0%" style="stop-color:#10B981;stop-opacity:1" />
      <stop offset="50%" style="stop-color:#059669;stop-opacity:1" />
      <stop offset="100%" style="stop-color:#047857;stop-opacity:1" />
    </linearGradient>
    
    <!-- Gradient for text -->
    <linearGradient id="textGradient" x1="0%" y1="0%" x2="100%" y2="0%">
      <stop offset="0%" style="stop-color:#1F2937;stop-opacity:1" />
      <stop offset="100%" style="stop-color:#374151;stop-opacity:1" />
    </linearGradient>
  </defs>
  
  <!-- Blender Icon -->
  <g transform="translate(2, 3)">
    <!-- Blender Base -->
    <rect x="0" y="16" width="16" height="8" rx="2" fill="url(#blenderGradient)" opacity="0.9"/>
    
    <!-- Blender Jar -->
    <path d="M2 16 L14 16 L12 4 L4 4 Z" fill="url(#blenderGradient)" opacity="0.7"/>
    
    <!-- Blender Lid -->
    <ellipse cx="8" cy="4" rx="6" ry="1.5" fill="url(#blenderGradient)"/>
    
    <!-- Smoothie inside -->
    <path d="M3.5 15 L12.5 15 L11 6 L5 6 Z" fill="url(#smoothieGradient)" opacity="0.8"/>
    
    <!-- Blender blades (center) -->
    <circle cx="8" cy="12" r="1.5" fill="#E5E7EB"/>
    <path d="M6.5 12 L9.5 12 M8 10.5 L8 13.5" stroke="#9CA3AF" stroke-width="0.8" stroke-linecap="round"/>
    
    <!-- Smoothie bubbles -->
    <circle cx="6" cy="8" r="0.5" fill="#FFFFFF" opacity="0.6"/>
    <circle cx="9" cy="10" r="0.3" fill="#FFFFFF" opacity="0.8"/>
    <circle cx="7" cy="11" r="0.4" fill="#FFFFFF" opacity="0.5"/>
  </g>
  
  <!-- Text -->
  <text x="26" y="12" font-family="Arial, sans-serif" font-size="9" font-weight="bold" fill="url(#textGradient)">
    Smoothie
  </text>
  <text x="26" y="22" font-family="Arial, sans-serif" font-size="9" font-weight="bold" fill="url(#textGradient)">
    Blender Guide
  </text>
  
  <!-- Decorative elements -->
  <circle cx="120" cy="8" r="1" fill="#10B981" opacity="0.3"/>
  <circle cx="125" cy="15" r="0.8" fill="#3B82F6" opacity="0.3"/>
  <circle cx="130" cy="22" r="1.2" fill="#10B981" opacity="0.2"/>
</svg>
