<svg viewBox="0 0 32 32" xmlns="http://www.w3.org/2000/svg">
  <defs>
    <!-- Gradient for the kettle body -->
    <linearGradient id="kettleGradient" x1="0%" y1="0%" x2="100%" y2="100%">
      <stop offset="0%" style="stop-color:#3B82F6;stop-opacity:1" />
      <stop offset="50%" style="stop-color:#1D4ED8;stop-opacity:1" />
      <stop offset="100%" style="stop-color:#1E40AF;stop-opacity:1" />
    </linearGradient>
    
    <!-- Gradient for steam -->
    <linearGradient id="steamGradient" x1="0%" y1="100%" x2="0%" y2="0%">
      <stop offset="0%" style="stop-color:#60A5FA;stop-opacity:0.8" />
      <stop offset="100%" style="stop-color:#93C5FD;stop-opacity:0.2" />
    </linearGradient>
  </defs>
  
  <!-- Background circle -->
  <circle cx="16" cy="16" r="16" fill="#F3F4F6"/>
  
  <!-- Electric Kettle Icon -->
  <g transform="translate(8, 8)">
    <!-- Kettle base/body -->
    <path d="M 2 12 L 4 2 L 12 2 L 14 12 Z" fill="url(#kettleGradient)" opacity="0.9"/>
    
    <!-- Kettle bottom platform -->
    <ellipse cx="8" cy="12" rx="7" ry="1.5" fill="url(#kettleGradient)" opacity="0.8"/>
    <ellipse cx="8" cy="13.5" rx="6.5" ry="1.2" fill="#1E40AF" opacity="0.6"/>
    
    <!-- Kettle lid -->
    <ellipse cx="8" cy="2" rx="4.5" ry="1" fill="url(#kettleGradient)"/>
    
    <!-- Kettle lid knob -->
    <ellipse cx="8" cy="1" rx="1.5" ry="0.7" fill="#60A5FA" opacity="0.9"/>
    <circle cx="8" cy="0.8" r="0.7" fill="#93C5FD" opacity="0.7"/>
    
    <!-- Handle -->
    <path d="M 13 4 Q 16 7 13 10" stroke="url(#kettleGradient)" stroke-width="1.2" fill="none" stroke-linecap="round"/>
    <path d="M 13 4 Q 16 7 13 10" stroke="#60A5FA" stroke-width="0.5" fill="none" stroke-linecap="round" opacity="0.5"/>
    
    <!-- Spout -->
    <path d="M 3 6 L 1 7 L 3 8 Z" fill="url(#kettleGradient)" opacity="0.9"/>
    
    <!-- Water level indicator -->
    <rect x="5" y="4.5" width="1" height="5" rx="0.3" fill="#E0F2FE" opacity="0.5"/>
    <rect x="5" y="6.5" width="1" height="3" rx="0.3" fill="#60A5FA" opacity="0.7"/>
    
    <!-- Power indicator light -->
    <circle cx="8" cy="7.5" r="0.8" fill="#EF4444" opacity="0.9"/>
    <circle cx="8" cy="7.5" r="0.4" fill="#FCA5A5" opacity="0.8"/>
    
    <!-- Steam rising from spout -->
    <path d="M 1 5 Q 0 3.5 0.5 2 Q 1 0.5 0 -1" stroke="url(#steamGradient)" stroke-width="0.8" fill="none" stroke-linecap="round" opacity="0.7"/>
    <path d="M 2 5.5 Q 1.5 4 2 2.5 Q 2.5 1 2 -0.5" stroke="url(#steamGradient)" stroke-width="0.6" fill="none" stroke-linecap="round" opacity="0.5"/>
  </g>
</svg>
